HIERARCHY
ROOT Hips
{
	OFFSET	0	0	0
	CHANNELS 6  Xposition Yposition Zposition Xrotation Yrotation Zrotation
	JOINT Spine
	{
		OFFSET	0	0.0328084	0
		CHANNELS 6  Xrotation Yrotation Zrotation Xposition Yposition Zposition
		JOINT Spine1
		{
			OFFSET	0	0.366927	-0.0655227
			CHANNELS 6  Xrotation Yrotation Zrotation Xposition Yposition Zposition
			JOINT Spine2
			{
				OFFSET	0	0.278144	0.0298128
				CHANNELS 6  Xrotation Yrotation Zrotation Xposition Yposition Zposition
				JOINT Spine3
				{
					OFFSET	0	0.332855	0.0989393
					CHANNELS 6  Xrotation Yrotation Zrotation Xposition Yposition Zposition
					JOINT Spine4
					{
						OFFSET	0	0.492731	-0.0504525
						CHANNELS 3  Xrotation Yrotation Zrotation
						JOINT Neck
						{
							OFFSET	0	0.235227	-0.16479
							CHANNELS 3  Xrotation Yrotation Zrotation
							JOINT Head
							{
								OFFSET	0	0.282403	-0.0845243
								CHANNELS 3  Xrotation Yrotation Zrotation
								End Site
								{
									OFFSET	0	0.589049	-0.0285024
								}
							}
						}
					}
					JOINT LeftShoulder
					{
						OFFSET	-0.141529	0.598878	-0.282403
						CHANNELS 3  Xrotation Yrotation Zrotation
						JOINT LeftArm
						{
							OFFSET	-0.388517	-0.0845243	0.108441
							CHANNELS 3  Xrotation Yrotation Zrotation
							JOINT LeftForeArm
							{
								OFFSET	-0.963635	-0.043982	0.0687832
								CHANNELS 3  Xrotation Yrotation Zrotation
								JOINT LeftHand
								{
									OFFSET	-0.87115	-0.0602013	0.0621817
									CHANNELS 3  Xrotation Yrotation Zrotation
									End Site
									{
										OFFSET	-0.317926	-0.0219706	0.0226918
									}
								}
							}
						}
					}
					JOINT RightShoulder
					{
						OFFSET	0.141529	0.598878	-0.282403
						CHANNELS 3  Xrotation Yrotation Zrotation
						JOINT RightArm
						{
							OFFSET	0.388517	-0.0845243	0.108441
							CHANNELS 3  Xrotation Yrotation Zrotation
							JOINT RightForeArm
							{
								OFFSET	0.963635	-0.043982	0.0687832
								CHANNELS 3  Xrotation Yrotation Zrotation
								JOINT RightHand
								{
									OFFSET	0.87115	-0.0602013	0.0621817
									CHANNELS 3  Xrotation Yrotation Zrotation
									End Site
									{
										OFFSET	0.317926	-0.0219706	0.0226918
									}
								}
							}
						}
					}
				}
			}
		}
	}
	JOINT LeftUpLeg
	{
		OFFSET	-0.371285	-0.273019	-0.0645399
		CHANNELS 3  Xrotation Yrotation Zrotation
		JOINT LeftLeg
		{
			OFFSET	0.00518453	-1.25293	-0.019586
			CHANNELS 3  Xrotation Yrotation Zrotation
			JOINT LeftFoot
			{
				OFFSET	-0.0695905	-1.28277	0.110319
				CHANNELS 3  Xrotation Yrotation Zrotation
				JOINT LeftToeBase
				{
					OFFSET	0	-0.112817	-0.299642
					CHANNELS 3  Xrotation Yrotation Zrotation
					End Site
					{
						OFFSET	0	-0.0451268	-0.180507
					}
				}
			}
		}
	}
	JOINT RightUpLeg
	{
		OFFSET	0.371285	-0.273019	-0.0645399
		CHANNELS 3  Xrotation Yrotation Zrotation
		JOINT RightLeg
		{
			OFFSET	-0.00518453	-1.25293	-0.019586
			CHANNELS 3  Xrotation Yrotation Zrotation
			JOINT RightFoot
			{
				OFFSET	0.0695905	-1.28277	0.110319
				CHANNELS 3  Xrotation Yrotation Zrotation
				JOINT RightToeBase
				{
					OFFSET	0	-0.112817	-0.299642
					CHANNELS 3  Xrotation Yrotation Zrotation
					End Site
					{
						OFFSET	0	-0.0451268	-0.180507
					}
				}
			}
		}
	}
}
MOTION
Frames: 7
Frame Time: 0.02
 4.91916 2.85494 0.695889 170.973 70.768 178.062 157.982 -179.998 178.1 0 0.0426278 0 166.789 -179.996 176.833 0 0.0426278 0 167.509 -179.988 176.833 0 0.0426278 0 6.64471 -0.00195493 -1.90002 0 0.0426278 0 170.552 -179.896 -179.375 172.438 178.648 -170.106 177.829 -174.24 -177.822 5.55086 -21.934 12.0825 16.3954 11.8205 52.4477 163.691 -141.897 169.863 -0 -25.0506 9.07696 5.28576 23.5132 -11.5217 8.67417 0.374559 -34.4876 32.7898 28.1834 -16.8829 -0 15.8943 -11.6362 17.358 16.6886 -1.39868 152.472 157.123 180 4.35689 0.007263 0.530815 157.493 180 -180 30.6853 -2.52572 27.3421 156.669 -176.695 -180 4.6644 0.158507 6.96781 160.204 180 -180
 4.92039 2.8545 0.704969 169.263 68.0535 179.997 158.244 -179.999 177.995 0 0.0413606 0 166.946 -179.997 176.658 0 0.0413606 0 167.66 -179.992 176.658 0 0.0413606 0 6.56076 -0.00131751 -2.00537 0 0.0413606 0 170.653 -179.891 -179.34 172.514 178.439 -170.281 177.851 -174.743 -177.82 5.81544 -21.1998 12.6517 16.5629 11.3817 52.1745 164.528 -141.648 170.433 -0 -25.1385 8.2948 5.60559 23.8394 -12.2318 8.26894 0.255977 -34.596 32.2678 27.4578 -16.0213 -0 15.1687 -11.6717 16.8769 15.8426 -1.11619 151.522 157.192 -180 4.9819 0.022192 0.604527 157.628 180 -180 30.0131 -6.04494 28.8866 156.885 -175.346 180 6.04708 0.207479 7.29941 160.364 180 -180
 4.92873 2.85111 0.714895 167.67 65.6176 -178.409 158.465 180 177.917 0 0.0400305 0 167.079 179.999 176.528 0 0.0400305 0 167.825 179.998 176.528 0 0.0400305 0 6.37631 0.00037585 -2.08311 0 0.0400305 0 170.473 -179.885 -179.315 172.224 178.291 -170.703 177.757 -175.46 -177.879 6.10352 -21.0628 13.2855 16.5197 10.4118 52.3031 165.277 -141.385 171.037 -0 -25.0931 7.78282 5.80941 24.1588 -12.6863 8.18713 0.383693 -34.68 31.9007 26.9998 -15.5417 -0 14.6431 -11.7741 16.3329 15.1187 -0.84598 150.78 157.396 180 5.50871 0.0269485 0.720775 157.741 180 -180 29.4963 -9.00998 30.278 157.035 -174.118 -180 7.12081 0.144425 7.62767 160.531 180 -180
 4.94744 2.8431 0.733924 166.821 63.2621 -177.56 158.632 -179.998 177.839 0 0.0385411 0 167.179 -179.995 176.399 0 0.0385411 0 167.936 -179.986 176.399 0 0.0385411 0 6.27484 -0.00238667 -2.16064 0 0.0385411 0 170.426 -179.88 -179.29 172.139 178.222 -171.175 177.724 -176.006 -177.96 6.25767 -21.3144 13.6328 16.6854 8.87196 51.9034 166.033 -141.67 171.566 -0 -24.8051 7.57785 5.81645 24.6435 -12.7065 7.95885 0.649414 -34.4552 31.4332 26.3258 -15.2815 -0 14.1553 -12.0426 16.2588 14.4019 -0.634299 149.652 157.705 180 6.40624 -0.00198482 0.85895 157.941 180 -180 29.2061 -11.4805 31.6739 157.089 -172.999 -180 7.56967 0.0113681 7.92213 160.622 180 -180
 4.96291 2.83864 0.757385 166.499 61.1842 -177.187 158.82 -179.999 177.766 0 0.037147 0 167.292 -179.999 176.276 0 0.037147 0 168.029 -179.996 176.276 0 0.037147 0 6.26133 -0.000631188 -2.23424 0 0.037147 0 170.606 -179.878 -179.265 172.386 178.308 -171.891 177.786 -176.376 -178.115 6.36736 -21.934 13.8896 16.4998 6.95979 51.7234 166.817 -142.609 172.329 -0 -24.2447 7.71696 5.74873 24.9217 -12.5588 7.59869 0.845638 -34.4291 31.1246 25.9555 -14.9169 -0 14.0044 -12.2962 16.5544 13.6067 -0.0219795 148.802 158.214 180 7.19898 -0.0170197 1.03077 158.064 180 -180 28.9514 -13.3824 32.8794 157.046 -172.341 -180 7.42374 -0.0325002 8.09755 160.667 180 -180
 4.97666 2.83829 0.781071 166.982 58.9296 -177.379 158.955 179.992 177.717 0 0.0358538 0 167.374 179.984 176.194 0 0.0358538 0 168.025 179.952 176.194 0 0.0358538 0 6.472 0.00800076 -2.28333 0 0.0358538 0 171.25 -179.884 -179.248 173.312 178.458 -172.806 178.051 -176.642 -178.32 6.36271 -22.4299 13.8889 16.3367 5.15634 51.4883 167.529 -143.711 172.81 -0 -23.7329 7.88195 5.75372 25.1 -12.5711 6.94004 0.797471 -34.5725 30.6612 25.5296 -14.2794 -0 13.8293 -12.7522 16.8854 12.957 0.499396 148.206 158.877 -180 7.89714 -0.00939145 1.26446 158.127 180 -180 28.7404 -14.8748 34.0025 157.189 -171.911 -180 6.91895 -0.050877 8.21208 160.662 180 -180
 4.98536 2.83783 0.790558 167.799 56.3824 -178.079 159.057 179.991 177.679 0 0.0347507 0 167.435 179.982 176.132 0 0.0347507 0 168.021 179.945 176.132 0 0.0347507 0 6.62855 0.00918263 -2.3211 0 0.0347507 0 171.731 -179.889 -179.234 173.969 178.465 -172.887 178.249 -176.541 -178.336 6.12683 -23.0395 13.3755 16.0899 3.67474 51.2351 168.293 -145.501 173.473 -0 -23.2214 8.03258 5.62644 25.2313 -12.2902 5.74758 1.0655 -35.0496 30.219 25.495 -14.1245 -0 13.614 -13.535 17.5755 12.4419 1.26016 147.758 159.747 -180 8.37349 0.00116714 1.58983 158.106 180 -180 28.0935 -16.5961 34.8795 156.787 -171.518 -180 5.73141 -0.0403801 8.29977 160.578 180 -180
